<svg width="830" height="148" viewBox="0 0 830 148" fill="none" xmlns="http://www.w3.org/2000/svg">
<path d="M119.518 77.3268C120.272 76.0094 122.252 76.3858 122.441 77.8915C122.913 82.2203 123.478 88.9016 122.535 96.1476C120.461 112.616 106.788 139.435 77.6505 146.964C76.3303 147.34 75.293 145.835 76.0474 144.611C78.6877 140.471 80.2907 134.636 80.2907 127.014C80.2907 109.604 61.4315 83.1613 61.4315 83.1613C61.4315 83.1613 42.5723 109.604 42.5723 127.014C42.5723 134.542 44.1754 140.376 46.8156 144.517C47.6643 145.74 46.627 147.246 45.2126 146.87C15.2265 138.871 -2.21824 108.852 0.233456 79.4912C1.27071 67.3518 8.06002 56.2475 12.0205 50.7895C12.8691 49.6603 14.755 50.2249 14.8493 51.7306C15.1322 58.0355 16.5467 69.5162 22.8645 79.1148L23.053 79.303C26.1648 72.7157 29.4652 67.9164 29.4652 67.9164C32.1998 63.7759 35.4058 59.6353 38.329 56.4358C53.6993 39.0265 57.0939 21.1468 47.9472 2.23187C47.2871 0.820312 48.8902 -0.591247 50.2103 0.255688C64.1661 8.91325 103.77 38.556 104.525 93.2304V94.0773C108.862 92.0071 115.086 85.2316 119.518 77.3268Z" fill="#1D2325"/>
<path d="M173.984 41.3296V144.847H198.352V41.3296H238.193V19.808H134.143V41.3296H173.984Z" fill="#1D2325"/>
<path d="M520.864 95.5792V144.848H544.163V90.4211C544.163 83.8994 542.74 78.1485 539.895 73.1683C537.049 68.1881 533.077 64.275 527.978 61.4292C522.998 58.5834 517.247 57.1605 510.725 57.1605C504.204 57.1605 498.393 58.5834 493.295 61.4292C490.691 62.9172 488.378 64.7132 486.358 66.8171V19.8116H463.058V144.848H486.358V95.5792C486.358 92.1405 487.069 89.1168 488.492 86.5081C490.034 83.8994 492.109 81.8836 494.718 80.4607C497.326 79.0378 500.291 78.3263 503.611 78.3263C508.71 78.3263 512.86 79.9271 516.061 83.1287C519.263 86.3303 520.864 90.4804 520.864 95.5792Z" fill="#1D2325"/>
<path fill-rule="evenodd" clip-rule="evenodd" d="M603.294 146.626C597.128 146.626 591.555 145.322 586.575 142.713C583.609 141.16 581 139.269 578.749 137.043V144.848H555.626V19.8116H578.927V66.3573C581.205 64.1857 583.814 62.3652 586.753 60.8956C591.733 58.4055 597.247 57.1605 603.294 57.1605C611.239 57.1605 618.353 59.117 624.638 63.03C630.922 66.943 635.843 72.279 639.401 79.0378C643.076 85.7967 644.914 93.4448 644.914 101.982C644.914 110.401 643.076 117.99 639.401 124.749C635.843 131.508 630.922 136.844 624.638 140.757C618.353 144.67 611.239 146.626 603.294 146.626ZM599.381 125.105C603.65 125.105 607.385 124.156 610.587 122.259C613.907 120.243 616.456 117.516 618.235 114.077C620.132 110.52 621.081 106.429 621.081 101.804C621.081 97.2986 620.132 93.3263 618.235 89.8875C616.456 86.3302 613.907 83.603 610.587 81.7058C607.266 79.69 603.472 78.6821 599.203 78.6821C594.935 78.6821 591.14 79.69 587.82 81.7058C584.618 83.603 582.069 86.3302 580.172 89.8875C578.393 93.3263 577.504 97.2986 577.504 101.804C577.504 106.429 578.393 110.52 580.172 114.077C582.069 117.516 584.678 120.243 587.998 122.259C591.318 124.156 595.112 125.105 599.381 125.105Z" fill="#1D2325"/>
<path fill-rule="evenodd" clip-rule="evenodd" d="M675.808 140.757C682.804 144.669 690.63 146.626 699.286 146.626C707.942 146.626 715.709 144.669 722.586 140.757C729.582 136.725 735.096 131.33 739.128 124.571C743.159 117.693 745.175 110.045 745.175 101.626C745.175 93.2074 743.159 85.6778 739.128 79.0375C735.096 72.2786 729.582 66.9427 722.586 63.0297C715.709 58.9981 707.883 56.9823 699.108 56.9823C690.571 56.9823 682.804 58.9981 675.808 63.0297C668.812 66.9427 663.298 72.2786 659.266 79.0375C655.235 85.6778 653.219 93.2074 653.219 101.626C653.219 110.045 655.235 117.693 659.266 124.571C663.417 131.33 668.93 136.725 675.808 140.757ZM710.669 122.081C707.349 123.978 703.495 124.927 699.108 124.927C694.839 124.927 691.045 123.978 687.725 122.081C684.405 120.065 681.796 117.338 679.899 113.899C678.001 110.342 677.053 106.31 677.053 101.804C677.053 97.2982 678.001 93.3259 679.899 89.8872C681.796 86.4485 684.405 83.7805 687.725 81.8833C691.045 79.8675 694.839 78.8596 699.108 78.8596C703.495 78.8596 707.349 79.8675 710.669 81.8833C713.99 83.7805 716.598 86.4485 718.495 89.8872C720.393 93.3259 721.341 97.2982 721.341 101.804C721.341 106.31 720.393 110.342 718.495 113.899C716.717 117.338 714.108 120.065 710.669 122.081Z" fill="#1D2325"/>
<path d="M784.424 117.171L802.357 144.847H829.748L799.12 100.675L828.147 58.9383H802.001L785.737 84.1127L769.096 58.9383H741.527L771.095 100.93L739.749 144.847H766.073L784.424 117.171Z" fill="#1D2325"/>
<path d="M422.389 146.626C413.615 146.626 405.729 144.669 398.733 140.757C391.737 136.843 386.223 131.508 382.192 124.749C378.16 117.99 376.144 110.401 376.144 101.982C376.144 93.4445 378.16 85.7963 382.192 79.0375C386.223 72.2786 391.737 66.9427 398.733 63.0297C405.848 58.9981 413.733 56.9823 422.389 56.9823C429.148 56.9823 435.373 58.2273 441.065 60.7174C446.757 63.2075 451.678 66.7648 455.828 71.3893L440.887 86.5078C438.634 84.0177 435.907 82.1205 432.705 80.8161C429.622 79.5118 426.184 78.8596 422.389 78.8596C418.12 78.8596 414.267 79.8675 410.828 81.8833C407.508 83.7805 404.84 86.4485 402.824 89.8872C400.927 93.2074 399.978 97.1797 399.978 101.804C399.978 106.31 400.927 110.342 402.824 113.899C404.84 117.338 407.508 120.065 410.828 122.081C414.267 123.978 418.12 124.927 422.389 124.927C426.302 124.927 429.8 124.274 432.883 122.97C436.085 121.547 438.812 119.531 441.065 116.923L456.184 132.041C451.796 136.784 446.757 140.401 441.065 142.891C435.373 145.381 429.148 146.626 422.389 146.626Z" fill="#1D2325"/>
<path d="M315.609 58.9393V144.848H338.909V97.358C338.909 90.9549 340.451 86.2118 343.534 83.1289C346.735 79.9273 350.826 78.3265 355.807 78.3265C358.178 78.3265 360.253 78.6822 362.032 79.3937C363.929 80.1052 365.53 81.1723 366.834 82.5953L381.419 65.876C378.692 62.793 375.668 60.5993 372.348 59.295C369.028 57.8721 365.293 57.1606 361.142 57.1606C351.538 57.1606 344.186 60.2436 339.087 66.4096L339.002 66.5109L338.971 66.5483L338.909 66.6225V58.9393H315.609Z" fill="#1D2325"/>
<path fill-rule="evenodd" clip-rule="evenodd" d="M260.055 146.626C251.399 146.626 243.573 144.669 236.577 140.757C229.7 136.725 224.186 131.33 220.036 124.571C216.004 117.693 213.989 110.045 213.989 101.626C213.989 93.2074 216.004 85.6778 220.036 79.0375C224.068 72.2786 229.581 66.9427 236.577 63.0297C243.573 58.9981 251.34 56.9823 259.878 56.9823C268.652 56.9823 276.479 58.9981 283.356 63.0297C290.352 66.9427 295.866 72.2786 299.897 79.0375C303.929 85.6778 305.945 93.2074 305.945 101.626C305.945 110.045 303.929 117.693 299.897 124.571C295.866 131.33 290.352 136.725 283.356 140.757C276.479 144.669 268.712 146.626 260.055 146.626ZM259.878 124.927C264.265 124.927 268.119 123.978 271.439 122.081C274.878 120.065 277.486 117.338 279.265 113.899C281.162 110.342 282.111 106.31 282.111 101.804C282.111 97.2982 281.162 93.3259 279.265 89.8872C277.368 86.4485 274.759 83.7805 271.439 81.8833C268.119 79.8675 264.265 78.8596 259.878 78.8596C255.609 78.8596 251.814 79.8675 248.494 81.8833C245.174 83.7805 242.565 86.4485 240.668 89.8872C238.771 93.3259 237.822 97.2982 237.822 101.804C237.822 106.31 238.771 110.342 240.668 113.899C242.565 117.338 245.174 120.065 248.494 122.081C251.814 123.978 255.609 124.927 259.878 124.927Z" fill="#1D2325"/>
</svg>
