<svg width="637" height="271" viewBox="0 0 637 271" fill="none" xmlns="http://www.w3.org/2000/svg">
<path d="M167.71 105.14C160.494 94.226 148.276 86.9948 134.373 86.9948C129.797 86.9948 125.349 87.7751 121.201 89.23C119.014 85.4165 117.728 80.9941 117.728 76.1776C117.728 61.6074 129.185 49.9072 143.452 49.9072C147.127 49.9072 150.369 50.5694 153.395 51.894C154.896 49.7049 156.396 47.0817 157.897 43.8091C164.008 47.3028 174.908 56.5972 176.176 72.3009L164.119 90.1152L167.71 105.14Z" fill="white"/>
<path d="M42.5079 196.366L50.0035 212.07L48.5044 185.897L42.5079 196.366Z" fill="black"/>
<path d="M18.941 202.452L98.7629 62.0585C105.14 47.4355 119.501 37.3239 136.102 37.3239C144.1 37.3239 151.666 39.5315 157.934 43.726C156.421 47.0374 154.908 49.6865 153.395 51.8941C150.369 50.5695 147.126 49.9073 143.451 49.9073C129.185 49.9073 117.728 61.6075 117.728 76.1776C117.728 80.9942 119.014 85.4166 121.201 89.23C125.349 87.7752 129.797 86.9949 134.373 86.9949C156.637 86.9949 174.579 105.539 174.579 128.056C174.579 128.999 174.421 129.941 174.241 131.022C174.21 131.206 174.178 131.395 174.147 131.588H174.363C174.255 132.361 174.093 133.134 173.931 133.906C173.768 134.679 173.606 135.452 173.498 136.224V136.445C158.463 214.752 64.4672 213.074 49.9074 212.399L50.0035 212.07L48.5044 185.897L42.5968 196.303L18.941 202.452Z" fill="black"/>
<path d="M85.5199 182.804L83.7905 184.129C83.7905 184.129 141.29 174.636 150.369 126.29L141.29 129.381C141.29 129.381 138.912 166.91 85.5199 182.804Z" fill="white"/>
<path d="M159.664 73.7491C162.53 73.7491 164.852 71.3771 164.852 68.4509C164.852 65.5248 162.53 63.1527 159.664 63.1527C156.799 63.1527 154.476 65.5248 154.476 68.4509C154.476 71.3771 156.799 73.7491 159.664 73.7491Z" fill="black"/>
<path d="M176.093 72.4249L165.933 87.8781H193.386L176.093 72.4249Z" fill="black"/>
<path d="M48.5045 185.897L0.532623 270.398L36.5115 258.433L50.0036 212.07L48.5045 185.897Z" fill="black"/>
<path d="M241.728 188.145H225.617L202.549 121.603H217.012L233.489 171.875L249.966 121.603H264.43L280.907 171.875L297.384 121.603H311.847L289.328 188.145H273.217L257.473 142.626L241.728 188.145Z" fill="black"/>
<path d="M375.559 188.145H362.743V179.187C357.251 185.768 349.928 189.059 340.591 189.059C333.634 189.059 327.958 187.048 323.381 183.209C318.804 179.37 316.607 174.069 316.607 167.488C316.607 160.907 318.987 155.971 323.931 152.863C328.691 149.572 335.281 147.927 343.52 147.927H361.645V145.368C361.645 136.593 356.702 132.023 346.815 132.023C340.591 132.023 334.183 134.217 327.592 138.787L321.368 130.012C329.423 123.614 338.577 120.323 349.012 120.323C356.885 120.323 363.292 122.334 368.235 126.173C373.179 130.195 375.742 136.41 375.742 144.819V188.145H375.559ZM361.462 163.283V157.616H345.717C335.648 157.616 330.521 160.724 330.521 167.122C330.521 170.413 331.803 172.789 334.366 174.617C336.929 176.262 340.408 177.177 344.801 177.177C349.195 177.177 353.223 175.897 356.518 173.338C359.814 170.961 361.462 167.67 361.462 163.283Z" fill="black"/>
<path d="M451.718 121.603V179.553C451.718 191.253 448.606 200.211 442.198 206.06C435.791 211.91 427.552 214.835 417.666 214.835C407.597 214.835 398.626 211.727 390.57 205.512L397.161 194.909C403.752 199.845 410.16 202.221 416.934 202.221C423.524 202.221 428.834 200.576 432.678 197.103C436.523 193.629 438.537 188.145 438.537 180.65V172.058C436.523 175.897 433.411 179.188 429.566 181.381C425.721 183.758 421.328 184.855 416.567 184.855C407.78 184.855 400.457 181.747 394.781 175.531C389.106 169.316 386.177 161.638 386.177 152.498C386.177 143.357 389.106 135.679 394.781 129.464C400.457 123.248 407.78 120.14 416.567 120.14C425.355 120.14 432.495 123.797 437.988 131.109V121.237H451.718V121.603ZM399.724 152.315C399.724 157.799 401.372 162.552 404.851 166.391C408.146 170.413 412.723 172.241 418.581 172.241C424.257 172.241 429.017 170.413 432.495 166.574C435.974 162.735 437.805 157.982 437.805 152.315C437.805 146.648 435.974 141.712 432.495 137.873C428.834 133.851 424.257 132.023 418.581 132.023C412.906 132.023 408.329 134.034 405.034 138.238C401.372 142.077 399.724 146.83 399.724 152.315Z" fill="black"/>
<path d="M486.87 132.754V166.574C486.87 169.681 487.785 172.241 489.433 174.069C491.081 175.897 493.461 176.811 496.39 176.811C499.319 176.811 502.248 175.348 504.994 172.424L510.67 182.295C505.727 186.683 500.234 188.876 494.376 188.876C488.334 188.876 483.391 186.865 479.181 182.661C474.97 178.456 472.773 172.972 472.773 166.025V132.754H464.351V121.42H472.773V100.763H486.87V121.603H504.445V132.937H486.87V132.754Z" fill="black"/>
<path d="M575.845 188.145H563.03V179.187C557.538 185.768 550.214 189.059 540.877 189.059C533.92 189.059 528.245 187.048 523.668 183.209C519.091 179.37 516.894 174.069 516.894 167.488C516.894 160.907 519.274 155.971 524.217 152.863C528.977 149.572 535.568 147.927 543.807 147.927H561.931V145.368C561.931 136.593 556.988 132.023 547.102 132.023C540.877 132.023 534.47 134.217 527.879 138.787L521.654 130.012C529.71 123.614 538.864 120.323 549.299 120.323C557.171 120.323 563.579 122.334 568.522 126.173C573.465 130.195 576.028 136.41 576.028 144.819V188.145H575.845ZM561.748 163.283V157.616H546.004C535.934 157.616 530.808 160.724 530.808 167.122C530.808 170.413 532.09 172.789 534.653 174.617C537.216 176.262 540.694 177.177 545.088 177.177C549.482 177.177 553.51 175.897 556.805 173.338C560.101 170.961 561.748 167.67 561.748 163.283Z" fill="black"/>
<path d="M593.787 108.258C591.957 106.43 591.224 104.419 591.224 102.042C591.224 99.6659 592.14 97.4722 593.787 95.8269C595.618 93.9988 597.632 93.2676 600.012 93.2676C602.392 93.2676 604.589 94.1816 606.237 95.8269C608.067 97.655 608.8 99.6659 608.8 102.042C608.8 104.419 607.884 106.613 606.237 108.258C604.589 109.903 602.392 110.817 600.012 110.817C597.632 111 595.618 110.086 593.787 108.258ZM606.969 188.145H592.872V121.603H606.969V188.145Z" fill="black"/>
<path d="M636.261 188.145H622.164V95.2785H636.261V188.145Z" fill="black"/>
</svg>
